<mxfile host="app.diagrams.net" agent="Mozilla/5.0 (Windows NT 10.0; Win64; x64) AppleWebKit/537.36 (KHTML, like Gecko) Chrome/125.0.0.0 Safari/537.36" version="24.7.16">
  <diagram name="Page-1" id="a7904f86-f2b4-8e86-fa97-74104820619b">
    <mxGraphModel dx="880" dy="529" grid="1" gridSize="10" guides="1" tooltips="1" connect="1" arrows="1" fold="1" page="1" pageScale="1" pageWidth="1100" pageHeight="850" background="none" math="0" shadow="0">
      <root>
        <mxCell id="0" />
        <mxCell id="1" parent="0" />
        <mxCell id="24794b860abc3c2d-41" style="edgeStyle=orthogonalEdgeStyle;rounded=0;html=1;exitX=1;exitY=0.25;entryX=0;entryY=0.25;labelBackgroundColor=none;endArrow=none;endFill=0;endSize=8;fontFamily=Verdana;fontSize=12;align=left;" parent="1" target="24794b860abc3c2d-19" edge="1">
          <mxGeometry relative="1" as="geometry">
            <mxPoint x="360" y="250" as="sourcePoint" />
          </mxGeometry>
        </mxCell>
        <mxCell id="24794b860abc3c2d-42" style="edgeStyle=orthogonalEdgeStyle;rounded=0;html=1;exitX=0;exitY=0.75;entryX=1;entryY=0.5;labelBackgroundColor=none;endArrow=none;endFill=0;endSize=8;fontFamily=Verdana;fontSize=12;align=left;" parent="1" source="24794b860abc3c2d-19" edge="1">
          <mxGeometry relative="1" as="geometry">
            <Array as="points">
              <mxPoint x="400" y="238" />
              <mxPoint x="400" y="295" />
            </Array>
            <mxPoint x="360" y="295" as="targetPoint" />
          </mxGeometry>
        </mxCell>
        <mxCell id="24794b860abc3c2d-19" value="&lt;p style=&quot;margin: 0px ; margin-top: 4px ; text-align: center ; text-decoration: underline&quot;&gt;&lt;b&gt;Object:Type&lt;/b&gt;&lt;/p&gt;&lt;hr&gt;&lt;p style=&quot;margin: 0px ; margin-left: 8px&quot;&gt;field1 = value1&lt;br&gt;field2 = value2&lt;br&gt;field3 = value3&lt;/p&gt;&lt;p style=&quot;margin: 0px ; margin-left: 8px&quot;&gt;field4 = value4&lt;br&gt;&lt;/p&gt;&lt;p style=&quot;margin: 0px ; margin-left: 8px&quot;&gt;field5 = value5&lt;br&gt;&lt;/p&gt;&lt;p style=&quot;margin: 0px ; margin-left: 8px&quot;&gt;field6 = value6&lt;br&gt;&lt;/p&gt;&lt;p style=&quot;margin: 0px ; margin-left: 8px&quot;&gt;field7 = value7&lt;br&gt;&lt;/p&gt;&lt;p style=&quot;margin: 0px ; margin-left: 8px&quot;&gt;field8 = value8&lt;/p&gt;" style="verticalAlign=top;align=left;overflow=fill;fontSize=12;fontFamily=Helvetica;html=1;rounded=0;shadow=0;comic=0;labelBackgroundColor=none;strokeWidth=1" parent="1" vertex="1">
          <mxGeometry x="410" y="125" width="140" height="150" as="geometry" />
        </mxCell>
        <mxCell id="24794b860abc3c2d-32" style="edgeStyle=orthogonalEdgeStyle;rounded=0;html=1;labelBackgroundColor=none;endArrow=none;endFill=0;endSize=8;fontFamily=Verdana;fontSize=12;align=left;exitX=1;exitY=0.5;" parent="1" source="24794b860abc3c2d-20" target="24794b860abc3c2d-24" edge="1">
          <mxGeometry relative="1" as="geometry">
            <Array as="points">
              <mxPoint x="574" y="350" />
              <mxPoint x="574" y="476" />
            </Array>
          </mxGeometry>
        </mxCell>
        <mxCell id="24794b860abc3c2d-20" value="&lt;p style=&quot;margin: 0px ; margin-top: 4px ; text-align: center ; text-decoration: underline&quot;&gt;&lt;b&gt;Object:Type&lt;/b&gt;&lt;/p&gt;&lt;hr&gt;&lt;p style=&quot;margin: 0px ; margin-left: 8px&quot;&gt;field1 = value1&lt;br&gt;field2 = value2&lt;br&gt;field3 = value3&lt;/p&gt;&lt;p style=&quot;margin: 0px ; margin-left: 8px&quot;&gt;field4 = value4&lt;/p&gt;" style="verticalAlign=top;align=left;overflow=fill;fontSize=12;fontFamily=Helvetica;html=1;rounded=0;shadow=0;comic=0;labelBackgroundColor=none;strokeWidth=1" parent="1" vertex="1">
          <mxGeometry x="410" y="305" width="140" height="90" as="geometry" />
        </mxCell>
        <mxCell id="24794b860abc3c2d-33" style="edgeStyle=orthogonalEdgeStyle;rounded=0;html=1;exitX=1;exitY=0.5;entryX=0;entryY=0.75;labelBackgroundColor=none;endArrow=none;endFill=0;endSize=8;fontFamily=Verdana;fontSize=12;align=left;" parent="1" target="24794b860abc3c2d-24" edge="1">
          <mxGeometry relative="1" as="geometry">
            <Array as="points">
              <mxPoint x="575" y="555" />
              <mxPoint x="575" y="525" />
            </Array>
            <mxPoint x="550" y="555" as="sourcePoint" />
          </mxGeometry>
        </mxCell>
        <mxCell id="24794b860abc3c2d-35" style="edgeStyle=orthogonalEdgeStyle;rounded=0;html=1;exitX=1;exitY=0.25;entryX=1;entryY=0.75;labelBackgroundColor=none;endArrow=none;endFill=0;endSize=8;fontFamily=Verdana;fontSize=12;align=left;" parent="1" target="24794b860abc3c2d-20" edge="1">
          <mxGeometry relative="1" as="geometry">
            <mxPoint x="550" y="510" as="sourcePoint" />
          </mxGeometry>
        </mxCell>
        <mxCell id="24794b860abc3c2d-31" style="edgeStyle=orthogonalEdgeStyle;rounded=0;html=1;labelBackgroundColor=none;endArrow=none;endFill=0;endSize=8;fontFamily=Verdana;fontSize=12;align=left;entryX=1;entryY=0.25;" parent="1" source="24794b860abc3c2d-23" target="24794b860abc3c2d-20" edge="1">
          <mxGeometry relative="1" as="geometry">
            <Array as="points">
              <mxPoint x="574" y="236" />
              <mxPoint x="574" y="327" />
            </Array>
          </mxGeometry>
        </mxCell>
        <mxCell id="24794b860abc3c2d-23" value="&lt;p style=&quot;margin: 0px ; margin-top: 4px ; text-align: center ; text-decoration: underline&quot;&gt;&lt;b&gt;Object:Type&lt;/b&gt;&lt;/p&gt;&lt;hr&gt;&lt;p style=&quot;margin: 0px ; margin-left: 8px&quot;&gt;field1 = value1&lt;br&gt;field2 = value2&lt;br&gt;field3 = value3&lt;/p&gt;&lt;p style=&quot;margin: 0px ; margin-left: 8px&quot;&gt;field4 = value4&lt;br&gt;&lt;/p&gt;&lt;p style=&quot;margin: 0px ; margin-left: 8px&quot;&gt;field5 = value5&lt;br&gt;&lt;/p&gt;&lt;p style=&quot;margin: 0px ; margin-left: 8px&quot;&gt;field6 = value6&lt;br&gt;&lt;/p&gt;&lt;p style=&quot;margin: 0px ; margin-left: 8px&quot;&gt;field7 = value7&lt;br&gt;&lt;/p&gt;&lt;p style=&quot;margin: 0px ; margin-left: 8px&quot;&gt;field8 = value8&lt;br&gt;&lt;/p&gt;&lt;p style=&quot;margin: 0px ; margin-left: 8px&quot;&gt;field9 = value9&lt;br&gt;&lt;/p&gt;&lt;p style=&quot;margin: 0px ; margin-left: 8px&quot;&gt;field10 = value10&lt;br&gt;&lt;/p&gt;&lt;p style=&quot;margin: 0px ; margin-left: 8px&quot;&gt;field11 = value11&lt;br&gt;&lt;/p&gt;&lt;p style=&quot;margin: 0px ; margin-left: 8px&quot;&gt;field12 = value12&lt;/p&gt;" style="verticalAlign=top;align=left;overflow=fill;fontSize=12;fontFamily=Helvetica;html=1;rounded=0;shadow=0;comic=0;labelBackgroundColor=none;strokeWidth=1" parent="1" vertex="1">
          <mxGeometry x="600" y="135" width="140" height="200" as="geometry" />
        </mxCell>
        <mxCell id="24794b860abc3c2d-44" style="edgeStyle=orthogonalEdgeStyle;rounded=0;html=1;exitX=1;exitY=0.25;entryX=0;entryY=0.75;labelBackgroundColor=none;endArrow=none;endFill=0;endSize=8;fontFamily=Verdana;fontSize=12;align=left;" parent="1" source="24794b860abc3c2d-24" target="24794b860abc3c2d-26" edge="1">
          <mxGeometry relative="1" as="geometry" />
        </mxCell>
        <mxCell id="24794b860abc3c2d-45" style="edgeStyle=orthogonalEdgeStyle;rounded=0;html=1;exitX=1;exitY=0.5;entryX=0;entryY=0.75;labelBackgroundColor=none;endArrow=none;endFill=0;endSize=8;fontFamily=Verdana;fontSize=12;align=left;" parent="1" source="24794b860abc3c2d-24" edge="1">
          <mxGeometry relative="1" as="geometry">
            <mxPoint x="770" y="442.5" as="targetPoint" />
          </mxGeometry>
        </mxCell>
        <mxCell id="24794b860abc3c2d-46" style="edgeStyle=orthogonalEdgeStyle;rounded=0;html=1;exitX=1;exitY=0.75;entryX=0;entryY=0.5;labelBackgroundColor=none;endArrow=none;endFill=0;endSize=8;fontFamily=Verdana;fontSize=12;align=left;" parent="1" source="24794b860abc3c2d-24" edge="1">
          <mxGeometry relative="1" as="geometry">
            <mxPoint x="770" y="590" as="targetPoint" />
          </mxGeometry>
        </mxCell>
        <mxCell id="24794b860abc3c2d-24" value="&lt;p style=&quot;margin: 0px ; margin-top: 4px ; text-align: center ; text-decoration: underline&quot;&gt;&lt;b&gt;Object:Type&lt;/b&gt;&lt;/p&gt;&lt;hr&gt;&lt;p style=&quot;margin: 0px ; margin-left: 8px&quot;&gt;field1 = value1&lt;br&gt;field2 = value2&lt;br&gt;field3 = value3&lt;/p&gt;&lt;p style=&quot;margin: 0px ; margin-left: 8px&quot;&gt;field4 = value4&lt;br&gt;&lt;/p&gt;&lt;p style=&quot;margin: 0px ; margin-left: 8px&quot;&gt;field5 = value5&lt;br&gt;&lt;/p&gt;&lt;p style=&quot;margin: 0px ; margin-left: 8px&quot;&gt;field6 = value6&lt;br&gt;&lt;/p&gt;&lt;p style=&quot;margin: 0px ; margin-left: 8px&quot;&gt;field7 = value7&lt;br&gt;&lt;/p&gt;&lt;p style=&quot;margin: 0px ; margin-left: 8px&quot;&gt;field8 = value8&lt;br&gt;&lt;/p&gt;&lt;p style=&quot;margin: 0px ; margin-left: 8px&quot;&gt;field9 = value9&lt;br&gt;&lt;/p&gt;&lt;p style=&quot;margin: 0px ; margin-left: 8px&quot;&gt;field10 = value10&lt;/p&gt;" style="verticalAlign=top;align=left;overflow=fill;fontSize=12;fontFamily=Helvetica;html=1;rounded=0;shadow=0;comic=0;labelBackgroundColor=none;strokeWidth=1" parent="1" vertex="1">
          <mxGeometry x="600" y="375" width="140" height="200" as="geometry" />
        </mxCell>
        <mxCell id="24794b860abc3c2d-43" style="edgeStyle=orthogonalEdgeStyle;rounded=0;html=1;exitX=1;exitY=0.75;entryX=0;entryY=0.25;labelBackgroundColor=none;endArrow=none;endFill=0;endSize=8;fontFamily=Verdana;fontSize=12;align=left;" parent="1" source="24794b860abc3c2d-26" edge="1">
          <mxGeometry relative="1" as="geometry">
            <mxPoint x="940" y="335" as="targetPoint" />
          </mxGeometry>
        </mxCell>
        <mxCell id="24794b860abc3c2d-26" value="&lt;p style=&quot;margin: 0px ; margin-top: 4px ; text-align: center ; text-decoration: underline&quot;&gt;&lt;b&gt;Object:Type&lt;/b&gt;&lt;/p&gt;&lt;hr&gt;&lt;p style=&quot;margin: 0px ; margin-left: 8px&quot;&gt;field1 = value1&lt;br&gt;field2 = value2&lt;br&gt;field3 = value3&lt;/p&gt;&lt;p style=&quot;margin: 0px ; margin-left: 8px&quot;&gt;field4 = value4&lt;br&gt;&lt;/p&gt;&lt;p style=&quot;margin: 0px ; margin-left: 8px&quot;&gt;field5 = value5&lt;/p&gt;" style="verticalAlign=top;align=left;overflow=fill;fontSize=12;fontFamily=Helvetica;html=1;rounded=0;shadow=0;comic=0;labelBackgroundColor=none;strokeWidth=1" parent="1" vertex="1">
          <mxGeometry x="770" y="200" width="140" height="110" as="geometry" />
        </mxCell>
      </root>
    </mxGraphModel>
  </diagram>
</mxfile>
